<svg width="315" height="49" viewBox="0 0 315 49" fill="none" xmlns="http://www.w3.org/2000/svg">
<path d="M22.6562 48.625C18.5104 48.625 14.8021 47.6875 11.5312 45.8125C8.26042 43.9375 5.67708 41.2188 3.78125 37.6562C1.90625 34.0938 0.96875 29.7917 0.96875 24.75C0.96875 19.6667 1.91667 15.3438 3.8125 11.7812C5.72917 8.21875 8.32292 5.5 11.5938 3.625C14.8854 1.75 18.5729 0.8125 22.6562 0.8125C26.2604 0.8125 29.5 1.47917 32.375 2.8125C35.2708 4.14583 37.6354 6.07292 39.4688 8.59375C41.3021 11.1146 42.4271 14.1667 42.8438 17.75H32.9062C32.5312 15.1875 31.4375 13.1771 29.625 11.7188C27.8125 10.2396 25.5625 9.5 22.875 9.5C19.2917 9.5 16.4062 10.8333 14.2188 13.5C12.0312 16.1458 10.9375 19.8958 10.9375 24.75C10.9375 29.7083 12.0312 33.4792 14.2188 36.0625C16.4271 38.6458 19.3021 39.9375 22.8438 39.9375C25.4479 39.9375 27.6562 39.25 29.4688 37.875C31.3021 36.5 32.4479 34.5729 32.9062 32.0938H42.8438C42.4896 34.9479 41.4688 37.6354 39.7812 40.1562C38.1146 42.6771 35.8333 44.7188 32.9375 46.2812C30.0625 47.8438 26.6354 48.625 22.6562 48.625ZM49.9375 48V1.4375H68.25C71.7917 1.4375 74.8021 2.11458 77.2812 3.46875C79.7812 4.82292 81.6875 6.6875 83 9.0625C84.3125 11.4375 84.9688 14.1667 84.9688 17.25C84.9688 20.3333 84.3021 23.0521 82.9688 25.4062C81.6354 27.7604 79.7083 29.6042 77.1875 30.9375C74.6667 32.25 71.6146 32.9062 68.0312 32.9062H59.75V48H49.9375ZM59.75 25.0312H66.4062C69.2604 25.0312 71.375 24.3125 72.75 22.875C74.1458 21.4167 74.8438 19.5417 74.8438 17.25C74.8438 14.9167 74.1458 13.0417 72.75 11.625C71.3542 10.2083 69.2292 9.5 66.375 9.5H59.75V25.0312ZM89.5938 9.5625V1.4375H127.812V9.5625H113.625V48H103.812V9.5625H89.5938ZM166.312 48.6562C160.667 48.6562 156.156 47.3646 152.781 44.7812C149.427 42.1979 147.677 38.3958 147.531 33.375H157.062C157.229 35.7083 158.146 37.4688 159.812 38.6562C161.5 39.8229 163.625 40.4062 166.188 40.4062C168.688 40.4062 170.688 39.875 172.188 38.8125C173.708 37.75 174.469 36.3646 174.469 34.6562C174.469 33.0938 173.781 31.8958 172.406 31.0625C171.031 30.2083 169.073 29.4792 166.531 28.875L161.438 27.625C157.521 26.6875 154.427 25.1979 152.156 23.1562C149.906 21.0938 148.781 18.3438 148.781 14.9062C148.781 12.0938 149.542 9.63542 151.062 7.53125C152.583 5.40625 154.667 3.76042 157.312 2.59375C159.979 1.40625 163.01 0.8125 166.406 0.8125C169.865 0.8125 172.885 1.40625 175.469 2.59375C178.052 3.78125 180.062 5.42708 181.5 7.53125C182.958 9.63542 183.708 12.0625 183.75 14.8125H174.25C174.083 13 173.312 11.5833 171.938 10.5625C170.562 9.54167 168.698 9.03125 166.344 9.03125C163.948 9.03125 162.104 9.53125 160.812 10.5312C159.521 11.5104 158.875 12.7604 158.875 14.2812C158.875 15.9271 159.594 17.1771 161.031 18.0312C162.469 18.8646 164.198 19.5208 166.219 20L170.375 21.0312C173.083 21.6354 175.49 22.5208 177.594 23.6875C179.698 24.8333 181.354 26.3125 182.562 28.125C183.771 29.9167 184.375 32.1042 184.375 34.6875C184.375 38.9583 182.781 42.3542 179.594 44.875C176.406 47.3958 171.979 48.6562 166.312 48.6562ZM211.969 48.625C207.844 48.625 204.135 47.6875 200.844 45.8125C197.552 43.9375 194.948 41.2188 193.031 37.6562C191.115 34.0938 190.156 29.7917 190.156 24.75C190.156 19.6667 191.115 15.3438 193.031 11.7812C194.948 8.21875 197.552 5.5 200.844 3.625C204.135 1.75 207.844 0.8125 211.969 0.8125C216.094 0.8125 219.792 1.75 223.062 3.625C226.354 5.5 228.958 8.21875 230.875 11.7812C232.792 15.3438 233.75 19.6667 233.75 24.75C233.75 29.8333 232.792 34.1562 230.875 37.7188C228.958 41.2604 226.354 43.9688 223.062 45.8438C219.792 47.6979 216.094 48.625 211.969 48.625ZM200.125 24.75C200.125 29.6667 201.198 33.4271 203.344 36.0312C205.51 38.6354 208.385 39.9375 211.969 39.9375C215.531 39.9375 218.385 38.6354 220.531 36.0312C222.698 33.4271 223.781 29.6667 223.781 24.75C223.781 19.8125 222.698 16.0417 220.531 13.4375C218.385 10.8125 215.531 9.5 211.969 9.5C208.385 9.5 205.51 10.8125 203.344 13.4375C201.198 16.0417 200.125 19.8125 200.125 24.75ZM241.062 48V1.4375H271.875V9.5625H250.875V22.3438H269.812V30.3125H250.875V48H241.062ZM276.719 9.5625V1.4375H314.938V9.5625H300.75V48H290.938V9.5625H276.719Z" fill="black"/>
</svg>
