<svg width="99" height="97" viewBox="0 0 99 97" fill="none" xmlns="http://www.w3.org/2000/svg">
<path d="M29.0788 40.5819C27.006 40.5619 25.1546 40.0753 23.5248 39.122C21.8949 38.1687 20.6112 36.7969 19.6738 35.0065C18.7467 33.2162 18.2906 31.0607 18.3053 28.5399C18.3202 25.9983 18.8067 23.8415 19.765 22.0694C20.7337 20.2974 22.0385 18.9506 23.6793 18.0289C25.3305 17.1073 27.1769 16.6564 29.2185 16.6761C31.0205 16.6935 32.6383 17.0425 34.0718 17.723C35.5158 18.4036 36.6924 19.3786 37.6016 20.6478C38.5109 21.9171 39.0644 23.4485 39.2623 25.2422L34.2938 25.1942C34.1138 23.9111 33.5728 22.9007 32.6709 22.1628C31.769 21.4144 30.6462 21.0338 29.3025 21.0208C27.5109 21.0035 26.0644 21.6562 24.9629 22.979C23.8615 24.2913 23.3036 26.161 23.2895 28.5881C23.275 31.0672 23.8108 32.9578 24.8969 34.26C25.9935 35.5624 27.4272 36.2221 29.1979 36.2392C30.4999 36.2517 31.6061 35.9187 32.5163 35.2399C33.4369 34.5613 34.0155 33.6033 34.2519 32.3659L39.2204 32.4139C39.035 33.8393 38.5167 35.1781 37.6656 36.4303C36.825 37.6827 35.6784 38.6925 34.226 39.4597C32.784 40.2271 31.0683 40.6011 29.0788 40.5819ZM42.7206 40.4012L42.8567 17.1203L52.0125 17.2087C53.7833 17.2258 55.2864 17.5789 56.522 18.2679C57.768 18.9571 58.7156 19.8986 59.3649 21.0924C60.0142 22.2862 60.3343 23.6539 60.3253 25.1956C60.3163 26.7372 59.975 28.0933 59.3015 29.264C58.628 30.4346 57.6591 31.3471 56.3948 32.0016C55.1306 32.6457 53.6027 32.9591 51.8112 32.9418L47.6707 32.9018L47.6266 40.4485L42.7206 40.4012ZM47.6937 28.9644L51.0217 28.9965C52.4487 29.0103 53.5081 28.6611 54.1997 27.949C54.9019 27.2266 55.2563 26.2925 55.263 25.1467C55.2698 23.98 54.9264 23.0392 54.2326 22.3241C53.5389 21.6091 52.4785 21.2446 51.0515 21.2309L47.7391 21.1989L47.6937 28.9644ZM62.6601 21.3742L62.6839 17.3118L81.7924 17.4963L81.7686 21.5587L74.6752 21.4902L74.5629 40.7087L69.6568 40.6613L69.7692 21.4429L62.6601 21.3742Z" fill="black"/>
<path d="M16.3136 77.7586C13.4908 77.7313 11.2395 77.0637 9.55963 75.7558C7.89017 74.448 7.02633 72.5385 6.96809 70.0274L11.7335 70.0734C11.81 71.2409 12.2632 72.1255 13.093 72.7273C13.9333 73.3188 14.994 73.6207 16.2752 73.6331C17.5252 73.6451 18.5267 73.3892 19.2797 72.8652C20.0432 72.3413 20.4275 71.6522 20.4325 70.7981C20.437 70.0169 20.0968 69.4146 19.4118 68.9913C18.7268 68.5576 17.7498 68.1835 16.4808 67.8692L13.9377 67.2196C11.9822 66.732 10.4397 65.9722 9.31035 64.9405C8.19143 63.8984 7.63699 62.518 7.64704 60.7992C7.65526 59.393 8.04263 58.1675 8.80916 57.1228C9.57575 56.0677 10.6222 55.2548 11.9484 54.6843C13.2852 54.1034 14.8025 53.8212 16.5003 53.8376C18.2294 53.8543 19.738 54.1657 21.0261 54.7719C22.3143 55.3782 23.3146 56.2108 24.0272 57.2698C24.7502 58.3289 25.1181 59.546 25.1309 60.9212L20.3811 60.8753C20.3031 59.9683 19.9218 59.2563 19.2373 58.7392C18.5528 58.2222 17.6221 57.958 16.445 57.9466C15.2472 57.935 14.3239 58.1761 13.6752 58.6699C13.0265 59.1532 12.6999 59.7751 12.6955 60.5355C12.6907 61.3584 13.0464 61.9868 13.7626 62.4209C14.4789 62.8445 15.3415 63.1809 16.3505 63.4303L18.4255 63.9659C19.7778 64.2811 20.9783 64.7354 22.0269 65.3289C23.0756 65.912 23.8994 66.6595 24.4982 67.5716C25.0971 68.4733 25.3928 69.5699 25.3853 70.8616C25.3728 72.9969 24.566 74.6871 22.965 75.9321C21.3639 77.1771 19.1468 77.786 16.3136 77.7586ZM39.1408 77.9634C37.0784 77.9435 35.227 77.4569 33.5867 76.5035C31.9465 75.5501 30.6524 74.1782 29.7045 72.3877C28.7566 70.5972 28.2901 68.4416 28.3048 65.9208C28.3197 63.3792 28.8114 61.2224 29.7801 59.4504C30.7488 57.6785 32.0588 56.3317 33.71 55.4101C35.3613 54.4885 37.2181 54.0377 39.2805 54.0576C41.3429 54.0775 43.189 54.5641 44.8189 55.5174C46.4592 56.4707 47.7533 57.8427 48.7011 59.6331C49.649 61.4236 50.1155 63.5897 50.1007 66.1313C50.0858 68.6729 49.594 70.8297 48.6253 72.6017C47.6567 74.3632 46.3467 75.7048 44.6955 76.6264C43.0547 77.5377 41.2032 77.9833 39.1408 77.9634ZM33.2889 65.9689C33.2746 68.4272 33.8 70.3126 34.8653 71.625C35.9409 72.9375 37.3746 73.6024 39.1662 73.6197C40.9473 73.6369 42.3781 72.9997 43.4586 71.708C44.5495 70.4164 45.1021 68.5414 45.1165 66.0832C45.1309 63.6144 44.6003 61.7238 43.5247 60.4113C42.4595 59.0885 41.0363 58.4185 39.2551 58.4012C37.4635 58.3839 36.0223 59.0263 34.9313 60.3283C33.8508 61.62 33.3034 63.5002 33.2889 65.9689ZM53.6888 77.7914L53.8249 54.5105L69.2304 54.6593L69.2067 58.7217L58.7071 58.6204L58.6698 65.0109L68.1381 65.1023L68.1148 69.0866L58.6465 68.9952L58.5948 77.8388L53.6888 77.7914ZM71.6284 58.7451L71.6522 54.6827L90.7606 54.8672L90.7369 58.9297L83.6435 58.8612L83.5311 78.0796L78.6251 78.0322L78.7375 58.8138L71.6284 58.7451Z" fill="black"/>
</svg>
